<?xml version="1.0" encoding="UTF-8"?>
<svg id="Layer_2" data-name="Layer 2" xmlns="http://www.w3.org/2000/svg" viewBox="0 0 419.19 361.54">
  <g id="_Слой_1" data-name="Слой 1">
    <g>
      <path d="M190.5,0h228.69c0,31.6-12.8,60.18-33.48,80.86-20.69,20.69-49.3,33.48-80.86,33.48s-60.18-12.8-80.86-33.48c-20.69-20.69-33.48-49.26-33.48-80.86Z"/>
      <path d="M190.5,190.5h228.69c0,31.6-12.8,60.18-33.48,80.86-20.69,20.69-49.3,33.48-80.86,33.48s-60.18-12.8-80.86-33.48c-20.69-20.69-33.48-49.26-33.48-80.86Z"/>
      <path d="M0,0h171.05v171.05h0C76.64,171.05,0,94.4,0,0H0Z"/>
      <path d="M171.05,190.5h0v171.05H0C0,267.14,76.64,190.5,171.05,190.5Z" transform="translate(-190.5 361.54) rotate(-90)"/>
    </g>
  </g>
</svg>